# xmcd CD database file
#
# Track frame offsets:
#	150
#	16960
#	34117
#	49547
#	66842
#	82320
#	98075
#	114707
#	131750
#	147892
#	164570
#	181392
#	199700
#	220492
#	239837
#	257685
#	283492
#
# Disc length: 4440 seconds
#
# Revision: 1
# Processed by: cddbd v1.5.1PL0 Copyright (c) Steve Scherf et al.
# Submitted via: CDex 1.40Release
#
DISCID=0d115611
DTITLE=Blue - Best Of Blue [Special Limited Fans Edition]
DYEAR=2004
DGENRE=Pop
TTITLE0=All Rise
TTITLE1=Too Close
TTITLE2=If You Come Back
TTITLE3=Fly By II
TTITLE4=One Love
TTITLE5=Sorry Seems To Be The Hardest Word [feat. Elton John]
TTITLE6=U Make Me Wanna
TTITLE7=Guilty
TTITLE8=Signed, Sealed, Delivered I'm Yours
TTITLE9=Breathe Easy
TTITLE10=Bubblin'
TTITLE11=Curtain Falls
TTITLE12=Get Down On It
TTITLE13=One Love [The Sequel]
TTITLE14=Love At First Sight
TTITLE15=Best In Me [2004]
TTITLE16=Data Track
EXTD=Submitted to FreeDB by:\nCooL Vick$ [:50 AM on 7th Jan 2005] YEAR: 2004 ID3G: 13
EXTT0=
EXTT1=
EXTT2=
EXTT3=
EXTT4=
EXTT5=
EXTT6=
EXTT7=
EXTT8=
EXTT9=
EXTT10=
EXTT11=
EXTT12=
EXTT13=
EXTT14=
EXTT15=
EXTT16=
PLAYORDER=
